<?xml version="1.0" standalone="no"?>
<svg xmlns:xlink="http://www.w3.org/1999/xlink" id="wave" style="transform:rotate(180deg); transition: 0.3s" viewBox="0 0 1440 490" version="1.1" xmlns="http://www.w3.org/2000/svg"><defs><linearGradient id="sw-gradient-0" x1="0" x2="0" y1="1" y2="0"><stop stop-color="rgba(74, 88, 199, 1)" offset="0%"/><stop stop-color="rgba(74, 88, 199, 1)" offset="100%"/></linearGradient></defs><path style="transform:translate(0, 0px); opacity:1" fill="url(#sw-gradient-0)" d="M0,0L240,65.3C480,131,960,261,1440,302.2C1920,343,2400,294,2880,285.8C3360,278,3840,310,4320,343C4800,376,5280,408,5760,375.7C6240,343,6720,245,7200,236.8C7680,229,8160,310,8640,318.5C9120,327,9600,261,10080,196C10560,131,11040,65,11520,106.2C12000,147,12480,294,12960,334.8C13440,376,13920,310,14400,285.8C14880,261,15360,278,15840,269.5C16320,261,16800,229,17280,220.5C17760,212,18240,229,18720,269.5C19200,310,19680,376,20160,400.2C20640,425,21120,408,21600,351.2C22080,294,22560,196,23040,187.8C23520,180,24000,261,24480,261.3C24960,261,25440,180,25920,196C26400,212,26880,327,27360,326.7C27840,327,28320,212,28800,171.5C29280,131,29760,163,30240,179.7C30720,196,31200,196,31680,204.2C32160,212,32640,229,33120,204.2C33600,180,34080,114,34320,81.7L34560,49L34560,490L34320,490C34080,490,33600,490,33120,490C32640,490,32160,490,31680,490C31200,490,30720,490,30240,490C29760,490,29280,490,28800,490C28320,490,27840,490,27360,490C26880,490,26400,490,25920,490C25440,490,24960,490,24480,490C24000,490,23520,490,23040,490C22560,490,22080,490,21600,490C21120,490,20640,490,20160,490C19680,490,19200,490,18720,490C18240,490,17760,490,17280,490C16800,490,16320,490,15840,490C15360,490,14880,490,14400,490C13920,490,13440,490,12960,490C12480,490,12000,490,11520,490C11040,490,10560,490,10080,490C9600,490,9120,490,8640,490C8160,490,7680,490,7200,490C6720,490,6240,490,5760,490C5280,490,4800,490,4320,490C3840,490,3360,490,2880,490C2400,490,1920,490,1440,490C960,490,480,490,240,490L0,490Z"/></svg>