<?xml version="1.0" standalone="no"?>
<svg xmlns:xlink="http://www.w3.org/1999/xlink" id="wave" style="transform:rotate(180deg); transition: 0.3s" viewBox="0 0 1440 130" version="1.1" xmlns="http://www.w3.org/2000/svg"><defs><linearGradient id="sw-gradient-0" x1="0" x2="0" y1="1" y2="0"><stop stop-color="rgba(128, 0, 32, 1)" offset="0%"/><stop stop-color="rgba(128, 0, 32, 1)" offset="100%"/></linearGradient></defs><path style="transform:translate(0, 0px); opacity:1" fill="url(#sw-gradient-0)" d="M0,0L26.7,4.3C53.3,9,107,17,160,21.7C213.3,26,267,26,320,32.5C373.3,39,427,52,480,56.3C533.3,61,587,56,640,56.3C693.3,56,747,61,800,69.3C853.3,78,907,91,960,91C1013.3,91,1067,78,1120,65C1173.3,52,1227,39,1280,39C1333.3,39,1387,52,1440,52C1493.3,52,1547,39,1600,34.7C1653.3,30,1707,35,1760,43.3C1813.3,52,1867,65,1920,71.5C1973.3,78,2027,78,2080,82.3C2133.3,87,2187,95,2240,95.3C2293.3,95,2347,87,2400,69.3C2453.3,52,2507,26,2560,15.2C2613.3,4,2667,9,2720,10.8C2773.3,13,2827,13,2880,17.3C2933.3,22,2987,30,3040,39C3093.3,48,3147,56,3200,62.8C3253.3,69,3307,74,3360,67.2C3413.3,61,3467,43,3520,43.3C3573.3,43,3627,61,3680,65C3733.3,69,3787,61,3813,56.3L3840,52L3840,130L3813.3,130C3786.7,130,3733,130,3680,130C3626.7,130,3573,130,3520,130C3466.7,130,3413,130,3360,130C3306.7,130,3253,130,3200,130C3146.7,130,3093,130,3040,130C2986.7,130,2933,130,2880,130C2826.7,130,2773,130,2720,130C2666.7,130,2613,130,2560,130C2506.7,130,2453,130,2400,130C2346.7,130,2293,130,2240,130C2186.7,130,2133,130,2080,130C2026.7,130,1973,130,1920,130C1866.7,130,1813,130,1760,130C1706.7,130,1653,130,1600,130C1546.7,130,1493,130,1440,130C1386.7,130,1333,130,1280,130C1226.7,130,1173,130,1120,130C1066.7,130,1013,130,960,130C906.7,130,853,130,800,130C746.7,130,693,130,640,130C586.7,130,533,130,480,130C426.7,130,373,130,320,130C266.7,130,213,130,160,130C106.7,130,53,130,27,130L0,130Z"/></svg>