<?xml version="1.0" standalone="no"?>
<svg xmlns:xlink="http://www.w3.org/1999/xlink" id="wave" style="transform:rotate(0deg); transition: 0.3s" viewBox="0 0 1440 140" version="1.1" xmlns="http://www.w3.org/2000/svg"><defs><linearGradient id="sw-gradient-0" x1="0" x2="0" y1="1" y2="0"><stop stop-color="rgba(128, 0, 32, 1)" offset="0%"/><stop stop-color="rgba(128, 0, 32, 1)" offset="100%"/></linearGradient></defs><path style="transform:translate(0, 0px); opacity:1" fill="current" d="M0,112L120,114.3C240,117,480,121,720,112C960,103,1200,79,1440,72.3C1680,65,1920,75,2160,67.7C2400,61,2640,37,2880,39.7C3120,42,3360,70,3600,67.7C3840,65,4080,33,4320,28C4560,23,4800,47,5040,49C5280,51,5520,33,5760,28C6000,23,6240,33,6480,51.3C6720,70,6960,98,7200,100.3C7440,103,7680,79,7920,77C8160,75,8400,93,8640,84C8880,75,9120,37,9360,23.3C9600,9,9840,19,10080,28C10320,37,10560,47,10800,51.3C11040,56,11280,56,11520,67.7C11760,79,12000,103,12240,112C12480,121,12720,117,12960,109.7C13200,103,13440,93,13680,93.3C13920,93,14160,103,14400,109.7C14640,117,14880,121,15120,114.3C15360,107,15600,89,15840,77C16080,65,16320,61,16560,49C16800,37,17040,19,17160,9.3L17280,0L17280,140L17160,140C17040,140,16800,140,16560,140C16320,140,16080,140,15840,140C15600,140,15360,140,15120,140C14880,140,14640,140,14400,140C14160,140,13920,140,13680,140C13440,140,13200,140,12960,140C12720,140,12480,140,12240,140C12000,140,11760,140,11520,140C11280,140,11040,140,10800,140C10560,140,10320,140,10080,140C9840,140,9600,140,9360,140C9120,140,8880,140,8640,140C8400,140,8160,140,7920,140C7680,140,7440,140,7200,140C6960,140,6720,140,6480,140C6240,140,6000,140,5760,140C5520,140,5280,140,5040,140C4800,140,4560,140,4320,140C4080,140,3840,140,3600,140C3360,140,3120,140,2880,140C2640,140,2400,140,2160,140C1920,140,1680,140,1440,140C1200,140,960,140,720,140C480,140,240,140,120,140L0,140Z"/></svg>