<?xml version="1.0" standalone="no"?>
<svg xmlns:xlink="http://www.w3.org/1999/xlink" id="wave" style="transform:rotate(180deg); transition: 0.3s" viewBox="0 0 1440 140" version="1.1" xmlns="http://www.w3.org/2000/svg"><defs><linearGradient id="sw-gradient-0" x1="0" x2="0" y1="1" y2="0"><stop stop-color="rgba(128, 0, 32, 1)" offset="0%"/><stop stop-color="rgba(128, 0, 32, 1)" offset="100%"/></linearGradient></defs><path style="transform:translate(0, 0px); opacity:1" fill="current" d="M0,84L120,91C240,98,480,112,720,100.3C960,89,1200,51,1440,44.3C1680,37,1920,61,2160,63C2400,65,2640,47,2880,32.7C3120,19,3360,9,3600,9.3C3840,9,4080,19,4320,23.3C4560,28,4800,28,5040,28C5280,28,5520,28,5760,37.3C6000,47,6240,65,6480,72.3C6720,79,6960,75,7200,67.7C7440,61,7680,51,7920,56C8160,61,8400,79,8640,72.3C8880,65,9120,33,9360,28C9600,23,9840,47,10080,51.3C10320,56,10560,42,10800,32.7C11040,23,11280,19,11520,16.3C11760,14,12000,14,12240,11.7C12480,9,12720,5,12960,18.7C13200,33,13440,65,13680,70C13920,75,14160,51,14400,49C14640,47,14880,65,15120,65.3C15360,65,15600,47,15840,39.7C16080,33,16320,37,16560,49C16800,61,17040,79,17160,88.7L17280,98L17280,140L17160,140C17040,140,16800,140,16560,140C16320,140,16080,140,15840,140C15600,140,15360,140,15120,140C14880,140,14640,140,14400,140C14160,140,13920,140,13680,140C13440,140,13200,140,12960,140C12720,140,12480,140,12240,140C12000,140,11760,140,11520,140C11280,140,11040,140,10800,140C10560,140,10320,140,10080,140C9840,140,9600,140,9360,140C9120,140,8880,140,8640,140C8400,140,8160,140,7920,140C7680,140,7440,140,7200,140C6960,140,6720,140,6480,140C6240,140,6000,140,5760,140C5520,140,5280,140,5040,140C4800,140,4560,140,4320,140C4080,140,3840,140,3600,140C3360,140,3120,140,2880,140C2640,140,2400,140,2160,140C1920,140,1680,140,1440,140C1200,140,960,140,720,140C480,140,240,140,120,140L0,140Z"/></svg>