<?xml version="1.0" standalone="no"?>
<svg xmlns:xlink="http://www.w3.org/1999/xlink" id="wave" style="transform:rotate(0deg); transition: 0.3s" viewBox="0 0 1440 130" version="1.1" xmlns="http://www.w3.org/2000/svg"><defs><linearGradient id="sw-gradient-0" x1="0" x2="0" y1="1" y2="0"><stop stop-color="rgba(128, 0, 32, 1)" offset="0%"/><stop stop-color="rgba(128, 0, 32, 1)" offset="100%"/></linearGradient></defs><path style="transform:translate(0, 0px); opacity:1" fill="url(#sw-gradient-0)" d="M0,52L26.7,56.3C53.3,61,107,69,160,60.7C213.3,52,267,26,320,21.7C373.3,17,427,35,480,45.5C533.3,56,587,61,640,65C693.3,69,747,74,800,67.2C853.3,61,907,43,960,43.3C1013.3,43,1067,61,1120,62.8C1173.3,65,1227,52,1280,56.3C1333.3,61,1387,82,1440,86.7C1493.3,91,1547,78,1600,73.7C1653.3,69,1707,74,1760,80.2C1813.3,87,1867,95,1920,88.8C1973.3,82,2027,61,2080,52C2133.3,43,2187,48,2240,52C2293.3,56,2347,61,2400,71.5C2453.3,82,2507,100,2560,104C2613.3,108,2667,100,2720,84.5C2773.3,69,2827,48,2880,49.8C2933.3,52,2987,78,3040,86.7C3093.3,95,3147,87,3200,80.2C3253.3,74,3307,69,3360,65C3413.3,61,3467,56,3520,49.8C3573.3,43,3627,35,3680,32.5C3733.3,30,3787,35,3813,36.8L3840,39L3840,130L3813.3,130C3786.7,130,3733,130,3680,130C3626.7,130,3573,130,3520,130C3466.7,130,3413,130,3360,130C3306.7,130,3253,130,3200,130C3146.7,130,3093,130,3040,130C2986.7,130,2933,130,2880,130C2826.7,130,2773,130,2720,130C2666.7,130,2613,130,2560,130C2506.7,130,2453,130,2400,130C2346.7,130,2293,130,2240,130C2186.7,130,2133,130,2080,130C2026.7,130,1973,130,1920,130C1866.7,130,1813,130,1760,130C1706.7,130,1653,130,1600,130C1546.7,130,1493,130,1440,130C1386.7,130,1333,130,1280,130C1226.7,130,1173,130,1120,130C1066.7,130,1013,130,960,130C906.7,130,853,130,800,130C746.7,130,693,130,640,130C586.7,130,533,130,480,130C426.7,130,373,130,320,130C266.7,130,213,130,160,130C106.7,130,53,130,27,130L0,130Z"/></svg>