<svg id="wave" style="transform:rotate(0deg); transition: 0.3s" viewBox="0 0 1440 100" version="1.1" xmlns="http://www.w3.org/2000/svg"><defs><linearGradient id="sw-gradient-0" x1="0" x2="0" y1="1" y2="0"><stop stop-color="rgba(128,0,32, 1)" offset="0%"></stop><stop stop-color="rgba(128,0,32, 1)" offset="100%"></stop></linearGradient></defs><path style="transform:translate(0, 0px); opacity:1" fill="url(#sw-gradient-0)" d="M0,70L34.3,65C68.6,60,137,50,206,46.7C274.3,43,343,47,411,45C480,43,549,37,617,30C685.7,23,754,17,823,21.7C891.4,27,960,43,1029,50C1097.1,57,1166,53,1234,55C1302.9,57,1371,63,1440,70C1508.6,77,1577,83,1646,73.3C1714.3,63,1783,37,1851,28.3C1920,20,1989,30,2057,31.7C2125.7,33,2194,27,2263,30C2331.4,33,2400,47,2469,48.3C2537.1,50,2606,40,2674,30C2742.9,20,2811,10,2880,20C2948.6,30,3017,60,3086,65C3154.3,70,3223,50,3291,35C3360,20,3429,10,3497,6.7C3565.7,3,3634,7,3703,15C3771.4,23,3840,37,3909,45C3977.1,53,4046,57,4114,48.3C4182.9,40,4251,20,4320,16.7C4388.6,13,4457,27,4526,38.3C4594.3,50,4663,60,4731,65C4800,70,4869,70,4903,70L4937.1,70L4937.1,100L4902.9,100C4868.6,100,4800,100,4731,100C4662.9,100,4594,100,4526,100C4457.1,100,4389,100,4320,100C4251.4,100,4183,100,4114,100C4045.7,100,3977,100,3909,100C3840,100,3771,100,3703,100C3634.3,100,3566,100,3497,100C3428.6,100,3360,100,3291,100C3222.9,100,3154,100,3086,100C3017.1,100,2949,100,2880,100C2811.4,100,2743,100,2674,100C2605.7,100,2537,100,2469,100C2400,100,2331,100,2263,100C2194.3,100,2126,100,2057,100C1988.6,100,1920,100,1851,100C1782.9,100,1714,100,1646,100C1577.1,100,1509,100,1440,100C1371.4,100,1303,100,1234,100C1165.7,100,1097,100,1029,100C960,100,891,100,823,100C754.3,100,686,100,617,100C548.6,100,480,100,411,100C342.9,100,274,100,206,100C137.1,100,69,100,34,100L0,100Z"></path></svg>