<?xml version="1.0" standalone="no"?>
<svg xmlns:xlink="http://www.w3.org/1999/xlink" id="wave" style="transform:rotate(0deg); transition: 0.3s" viewBox="0 0 1440 140" version="1.1" xmlns="http://www.w3.org/2000/svg"><defs><linearGradient id="sw-gradient-0" x1="0" x2="0" y1="1" y2="0"><stop stop-color="rgba(128, 0, 32, 1)" offset="0%"/><stop stop-color="rgba(128, 0, 32, 1)" offset="100%"/></linearGradient></defs><path style="transform:translate(0, 0px); opacity:1" fill="url(#sw-gradient-0)" d="M0,56L120,49C240,42,480,28,720,30.3C960,33,1200,51,1440,51.3C1680,51,1920,33,2160,42C2400,51,2640,89,2880,86.3C3120,84,3360,42,3600,35C3840,28,4080,56,4320,74.7C4560,93,4800,103,5040,100.3C5280,98,5520,84,5760,74.7C6000,65,6240,61,6480,67.7C6720,75,6960,93,7200,95.7C7440,98,7680,84,7920,74.7C8160,65,8400,61,8640,51.3C8880,42,9120,28,9360,21C9600,14,9840,14,10080,18.7C10320,23,10560,33,10800,51.3C11040,70,11280,98,11520,100.3C11760,103,12000,79,12240,79.3C12480,79,12720,103,12960,105C13200,107,13440,89,13680,86.3C13920,84,14160,98,14400,93.3C14640,89,14880,65,15120,56C15360,47,15600,51,15840,53.7C16080,56,16320,56,16560,56C16800,56,17040,56,17160,56L17280,56L17280,140L17160,140C17040,140,16800,140,16560,140C16320,140,16080,140,15840,140C15600,140,15360,140,15120,140C14880,140,14640,140,14400,140C14160,140,13920,140,13680,140C13440,140,13200,140,12960,140C12720,140,12480,140,12240,140C12000,140,11760,140,11520,140C11280,140,11040,140,10800,140C10560,140,10320,140,10080,140C9840,140,9600,140,9360,140C9120,140,8880,140,8640,140C8400,140,8160,140,7920,140C7680,140,7440,140,7200,140C6960,140,6720,140,6480,140C6240,140,6000,140,5760,140C5520,140,5280,140,5040,140C4800,140,4560,140,4320,140C4080,140,3840,140,3600,140C3360,140,3120,140,2880,140C2640,140,2400,140,2160,140C1920,140,1680,140,1440,140C1200,140,960,140,720,140C480,140,240,140,120,140L0,140Z"/></svg>