<?xml version="1.0" standalone="no"?>
<svg xmlns:xlink="http://www.w3.org/1999/xlink" id="wave" style="transform:rotate(180deg); transition: 0.3s" viewBox="0 0 1440 140" version="1.1" xmlns="http://www.w3.org/2000/svg"><defs><linearGradient id="sw-gradient-0" x1="0" x2="0" y1="1" y2="0"><stop stop-color="rgba(128, 0, 32, 1)" offset="0%"/><stop stop-color="rgba(128, 0, 32, 1)" offset="100%"/></linearGradient></defs><path style="transform:translate(0, 0px); opacity:1" fill="current" d="M0,126L120,107.3C240,89,480,51,720,51.3C960,51,1200,89,1440,98C1680,107,1920,89,2160,67.7C2400,47,2640,23,2880,32.7C3120,42,3360,84,3600,105C3840,126,4080,126,4320,121.3C4560,117,4800,107,5040,86.3C5280,65,5520,33,5760,21C6000,9,6240,19,6480,30.3C6720,42,6960,56,7200,60.7C7440,65,7680,61,7920,65.3C8160,70,8400,84,8640,77C8880,70,9120,42,9360,35C9600,28,9840,42,10080,56C10320,70,10560,84,10800,95.7C11040,107,11280,117,11520,116.7C11760,117,12000,107,12240,98C12480,89,12720,79,12960,70C13200,61,13440,51,13680,58.3C13920,65,14160,89,14400,91C14640,93,14880,75,15120,56C15360,37,15600,19,15840,16.3C16080,14,16320,28,16560,32.7C16800,37,17040,33,17160,30.3L17280,28L17280,140L17160,140C17040,140,16800,140,16560,140C16320,140,16080,140,15840,140C15600,140,15360,140,15120,140C14880,140,14640,140,14400,140C14160,140,13920,140,13680,140C13440,140,13200,140,12960,140C12720,140,12480,140,12240,140C12000,140,11760,140,11520,140C11280,140,11040,140,10800,140C10560,140,10320,140,10080,140C9840,140,9600,140,9360,140C9120,140,8880,140,8640,140C8400,140,8160,140,7920,140C7680,140,7440,140,7200,140C6960,140,6720,140,6480,140C6240,140,6000,140,5760,140C5520,140,5280,140,5040,140C4800,140,4560,140,4320,140C4080,140,3840,140,3600,140C3360,140,3120,140,2880,140C2640,140,2400,140,2160,140C1920,140,1680,140,1440,140C1200,140,960,140,720,140C480,140,240,140,120,140L0,140Z"/></svg>