<?xml version="1.0" standalone="no"?>
<svg xmlns:xlink="http://www.w3.org/1999/xlink" id="wave" style="transform:rotate(0deg); transition: 0.3s" viewBox="0 0 1440 140" version="1.1" xmlns="http://www.w3.org/2000/svg"><defs><linearGradient id="sw-gradient-0" x1="0" x2="0" y1="1" y2="0"><stop stop-color="rgba(128, 0, 32, 1)" offset="0%"/><stop stop-color="rgba(128, 0, 32, 1)" offset="100%"/></linearGradient></defs><path style="transform:translate(0, 0px); opacity:1" fill="url(#sw-gradient-0)" d="M0,56L26.7,56C53.3,56,107,56,160,63C213.3,70,267,84,320,74.7C373.3,65,427,33,480,25.7C533.3,19,587,37,640,58.3C693.3,79,747,103,800,112C853.3,121,907,117,960,112C1013.3,107,1067,103,1120,93.3C1173.3,84,1227,70,1280,72.3C1333.3,75,1387,93,1440,98C1493.3,103,1547,93,1600,79.3C1653.3,65,1707,47,1760,42C1813.3,37,1867,47,1920,60.7C1973.3,75,2027,93,2080,105C2133.3,117,2187,121,2240,123.7C2293.3,126,2347,126,2400,119C2453.3,112,2507,98,2560,86.3C2613.3,75,2667,65,2720,60.7C2773.3,56,2827,56,2880,51.3C2933.3,47,2987,37,3040,35C3093.3,33,3147,37,3200,35C3253.3,33,3307,23,3360,28C3413.3,33,3467,51,3520,60.7C3573.3,70,3627,70,3680,60.7C3733.3,51,3787,33,3813,23.3L3840,14L3840,140L3813.3,140C3786.7,140,3733,140,3680,140C3626.7,140,3573,140,3520,140C3466.7,140,3413,140,3360,140C3306.7,140,3253,140,3200,140C3146.7,140,3093,140,3040,140C2986.7,140,2933,140,2880,140C2826.7,140,2773,140,2720,140C2666.7,140,2613,140,2560,140C2506.7,140,2453,140,2400,140C2346.7,140,2293,140,2240,140C2186.7,140,2133,140,2080,140C2026.7,140,1973,140,1920,140C1866.7,140,1813,140,1760,140C1706.7,140,1653,140,1600,140C1546.7,140,1493,140,1440,140C1386.7,140,1333,140,1280,140C1226.7,140,1173,140,1120,140C1066.7,140,1013,140,960,140C906.7,140,853,140,800,140C746.7,140,693,140,640,140C586.7,140,533,140,480,140C426.7,140,373,140,320,140C266.7,140,213,140,160,140C106.7,140,53,140,27,140L0,140Z"/></svg>