<?xml version="1.0" standalone="no"?>
<svg xmlns:xlink="http://www.w3.org/1999/xlink" id="wave" style="transform:rotate(180deg); transition: 0.3s" viewBox="0 0 1440 140" version="1.1" xmlns="http://www.w3.org/2000/svg"><defs><linearGradient id="sw-gradient-0" x1="0" x2="0" y1="1" y2="0"><stop stop-color="rgba(128, 0, 32, 1)" offset="0%"/><stop stop-color="rgba(128, 0, 32, 1)" offset="100%"/></linearGradient></defs><path style="transform:translate(0, 0px); opacity:1" fill="url(#sw-gradient-0)" d="M0,98L26.7,100.3C53.3,103,107,107,160,95.7C213.3,84,267,56,320,56C373.3,56,427,84,480,81.7C533.3,79,587,47,640,37.3C693.3,28,747,42,800,46.7C853.3,51,907,47,960,44.3C1013.3,42,1067,42,1120,46.7C1173.3,51,1227,61,1280,74.7C1333.3,89,1387,107,1440,109.7C1493.3,112,1547,98,1600,88.7C1653.3,79,1707,75,1760,79.3C1813.3,84,1867,98,1920,105C1973.3,112,2027,112,2080,93.3C2133.3,75,2187,37,2240,30.3C2293.3,23,2347,47,2400,51.3C2453.3,56,2507,42,2560,32.7C2613.3,23,2667,19,2720,25.7C2773.3,33,2827,51,2880,60.7C2933.3,70,2987,70,3040,63C3093.3,56,3147,42,3200,42C3253.3,42,3307,56,3360,72.3C3413.3,89,3467,107,3520,102.7C3573.3,98,3627,70,3680,51.3C3733.3,33,3787,23,3813,18.7L3840,14L3840,140L3813.3,140C3786.7,140,3733,140,3680,140C3626.7,140,3573,140,3520,140C3466.7,140,3413,140,3360,140C3306.7,140,3253,140,3200,140C3146.7,140,3093,140,3040,140C2986.7,140,2933,140,2880,140C2826.7,140,2773,140,2720,140C2666.7,140,2613,140,2560,140C2506.7,140,2453,140,2400,140C2346.7,140,2293,140,2240,140C2186.7,140,2133,140,2080,140C2026.7,140,1973,140,1920,140C1866.7,140,1813,140,1760,140C1706.7,140,1653,140,1600,140C1546.7,140,1493,140,1440,140C1386.7,140,1333,140,1280,140C1226.7,140,1173,140,1120,140C1066.7,140,1013,140,960,140C906.7,140,853,140,800,140C746.7,140,693,140,640,140C586.7,140,533,140,480,140C426.7,140,373,140,320,140C266.7,140,213,140,160,140C106.7,140,53,140,27,140L0,140Z"/></svg>