<?xml version="1.0" standalone="no"?>
<svg xmlns:xlink="http://www.w3.org/1999/xlink" id="wave" style="transform:rotate(0deg); transition: 0.3s" viewBox="0 0 1440 140" version="1.1" xmlns="http://www.w3.org/2000/svg"><defs><linearGradient id="sw-gradient-0" x1="0" x2="0" y1="1" y2="0"><stop stop-color="rgba(128, 0, 32, 1)" offset="0%"/><stop stop-color="rgba(128, 0, 32, 1)" offset="100%"/></linearGradient></defs><path style="transform:translate(0, 0px); opacity:1" fill="current" d="M0,112L120,98C240,84,480,56,720,44.3C960,33,1200,37,1440,49C1680,61,1920,79,2160,91C2400,103,2640,107,2880,109.7C3120,112,3360,112,3600,107.3C3840,103,4080,93,4320,91C4560,89,4800,93,5040,91C5280,89,5520,79,5760,72.3C6000,65,6240,61,6480,51.3C6720,42,6960,28,7200,28C7440,28,7680,42,7920,51.3C8160,61,8400,65,8640,60.7C8880,56,9120,42,9360,37.3C9600,33,9840,37,10080,49C10320,61,10560,79,10800,93.3C11040,107,11280,117,11520,105C11760,93,12000,61,12240,51.3C12480,42,12720,56,12960,51.3C13200,47,13440,23,13680,16.3C13920,9,14160,19,14400,37.3C14640,56,14880,84,15120,100.3C15360,117,15600,121,15840,123.7C16080,126,16320,126,16560,121.3C16800,117,17040,107,17160,102.7L17280,98L17280,140L17160,140C17040,140,16800,140,16560,140C16320,140,16080,140,15840,140C15600,140,15360,140,15120,140C14880,140,14640,140,14400,140C14160,140,13920,140,13680,140C13440,140,13200,140,12960,140C12720,140,12480,140,12240,140C12000,140,11760,140,11520,140C11280,140,11040,140,10800,140C10560,140,10320,140,10080,140C9840,140,9600,140,9360,140C9120,140,8880,140,8640,140C8400,140,8160,140,7920,140C7680,140,7440,140,7200,140C6960,140,6720,140,6480,140C6240,140,6000,140,5760,140C5520,140,5280,140,5040,140C4800,140,4560,140,4320,140C4080,140,3840,140,3600,140C3360,140,3120,140,2880,140C2640,140,2400,140,2160,140C1920,140,1680,140,1440,140C1200,140,960,140,720,140C480,140,240,140,120,140L0,140Z"/></svg>